<svg width="45" height="21" viewBox="0 0 45 21" fill="none" xmlns="http://www.w3.org/2000/svg">
<path d="M45 7.35H41.8113C41.6344 6.41265 40.8123 5.55 39.8241 5.55H38.4741C38.3971 5.55 38.25 5.2647 38.25 5.27325V2.3253C38.25 1.20885 37.3405 0.150002 36.2241 0.150002H33.0741C31.9576 0.150002 31.05 1.20885 31.05 2.3253V7.35H13.95V2.3253C13.95 1.20885 13.0405 0.150002 11.9241 0.150002H8.7741C7.65765 0.150002 6.75 1.20885 6.75 2.3253V5.30115C6.75 5.2926 6.60105 5.55 6.5241 5.55H5.1741C4.1958 5.55 3.37725 6.42615 3.19005 7.35H0V13.65H3.1536C3.17925 14.7449 4.0734 15.45 5.1741 15.45H6.5241C6.60105 15.45 6.75 15.6143 6.75 15.6057V18.9753C6.75 20.0918 7.65765 20.85 8.7741 20.85H11.9241C13.0405 20.85 13.95 20.0918 13.95 18.9753V13.65H31.05V18.9753C31.05 20.0918 31.9576 20.85 33.0741 20.85H36.2241C37.3405 20.85 38.25 20.0918 38.25 18.9753V15.5774C38.25 15.5859 38.3971 15.45 38.4741 15.45H39.8241C40.9153 15.45 41.8014 14.7314 41.8415 13.65H45V7.35ZM1.8 9.15H3.15V11.85H1.8V9.15ZM6.75 13.425C6.75 13.5492 6.6492 13.65 6.525 13.65H5.175C5.0508 13.65 4.95 13.5492 4.95 13.425V7.575C4.95 7.4508 5.0508 7.35 5.175 7.35H6.525C6.6492 7.35 6.75 7.4508 6.75 7.575V13.425ZM12.15 18.9753C12.15 19.0973 12.046 19.05 11.9241 19.05H8.7741C8.65215 19.05 8.55 19.0973 8.55 18.9753V13.6032V7.7532V2.3253C8.55 2.20335 8.65215 1.95 8.7741 1.95H11.9241C12.046 1.95 12.15 2.20335 12.15 2.3253V18.9753ZM13.95 11.85V9.15H31.05V11.85H13.95ZM36.45 18.9753C36.45 19.0973 36.346 19.05 36.2241 19.05H33.0741C32.9521 19.05 32.85 19.0973 32.85 18.9753V2.3253C32.85 2.20335 32.9521 1.95 33.0741 1.95H36.2241C36.346 1.95 36.45 2.20335 36.45 2.3253V7.7253V13.5753V18.9753ZM40.05 13.425C40.05 13.5492 39.9492 13.65 39.825 13.65H38.475C38.3508 13.65 38.25 13.5492 38.25 13.425V7.575C38.25 7.4508 38.3508 7.35 38.475 7.35H39.825C39.9492 7.35 40.05 7.4508 40.05 7.575V13.425ZM43.2 11.85H41.85V9.15H43.2V11.85Z" fill="#231F20"/>
</svg>
