<svg width="40" height="41" viewBox="0 0 40 41" fill="none" xmlns="http://www.w3.org/2000/svg">
<path d="M36.7994 33.8717L30.1443 33.2898C30.0984 33.2852 30.052 33.2898 30.0079 33.3034C29.9638 33.317 29.9228 33.3392 29.8874 33.3689C29.852 33.3985 29.8229 33.435 29.8019 33.476C29.7808 33.5171 29.7681 33.562 29.7647 33.608L29.7348 33.9596L21.176 33.2107L19.158 33.0332L10.7135 32.2949L10.7451 31.9434C10.7531 31.8504 10.7239 31.758 10.664 31.6865C10.604 31.615 10.5181 31.5702 10.4252 31.5619L9.96641 31.5215C9.95915 31.4912 9.9473 31.4621 9.93125 31.4354C6.90254 26.2481 6.69863 22.4758 7.06074 20.2258C7.20596 19.2702 7.51017 18.3457 7.96074 17.4906C8.11453 17.201 8.29209 16.9247 8.4916 16.6645L18.4602 20.3506C18.5108 20.3696 18.5651 20.3766 18.6189 20.371C18.6727 20.3654 18.7245 20.3475 18.7701 20.3185C18.8158 20.2895 18.8541 20.2504 18.8821 20.2041C18.91 20.1578 18.9269 20.1057 18.9313 20.0518L19.0754 18.3994C19.0812 18.3336 19.0683 18.2675 19.0381 18.2087C19.008 18.1499 18.9618 18.1008 18.9049 18.0672L11.9332 13.9434L8.18908 5.91016C8.14893 5.82588 8.07776 5.76039 7.99045 5.72734C7.90264 5.69612 7.80609 5.70053 7.7215 5.73965L6.44727 6.33379C6.3626 6.37341 6.29693 6.44477 6.26445 6.53242C6.24856 6.57583 6.24147 6.62196 6.24358 6.66813C6.24569 6.71431 6.25697 6.7596 6.27676 6.80137L8.02754 10.5561C7.39121 11.0447 5.81094 12.6373 5.46992 16.6047C5.46488 16.6585 5.47271 16.7127 5.49278 16.7629C2.87012 20.391 2.02813 23.5305 1.8418 25.7523C1.5957 28.6826 2.3832 30.6039 2.60645 31.082C1.99236 31.2557 1.44561 31.612 1.03873 32.1037C0.631856 32.5953 0.384093 33.199 0.328321 33.8348L0.324805 33.8734C0.275907 34.4365 0.379543 35.0022 0.624826 35.5114C0.870108 36.0205 1.24798 36.4542 1.71875 36.7668V39.8359C1.71903 39.9291 1.75616 40.0184 1.82203 40.0842C1.8879 40.1501 1.97716 40.1872 2.07031 40.1875H36.875C36.9333 40.1873 36.9906 40.1728 37.042 40.1453C37.0425 40.1453 37.0429 40.1451 37.0432 40.1448C37.0436 40.1445 37.0438 40.144 37.0438 40.1436C37.7352 40.0274 38.3687 39.6852 38.8448 39.1706C39.321 38.6559 39.613 37.9978 39.6752 37.2994C39.684 37.2063 39.6875 37.1148 39.6875 37.0217C39.6863 36.2309 39.3892 35.4691 38.8548 34.8862C38.3204 34.3033 37.5872 33.9414 36.7994 33.8717ZM20.7979 33.8822L29.6731 34.6592L29.3655 38.1625L10.3459 36.4979L10.6535 32.9945L20.7979 33.8822ZM18.2719 19.5314L8.47561 15.9086L7.37697 15.5025C7.99045 14.7801 8.67775 14.0418 9.44943 13.2895L11.4727 14.4865L18.3563 18.5594L18.2719 19.5314ZM1.02424 33.935L1.02775 33.8963C1.07608 33.3556 1.3028 32.8463 1.67225 32.4485C2.04169 32.0507 2.5329 31.7871 3.06858 31.699C3.19757 31.6778 3.32808 31.6672 3.45881 31.6674C3.52912 31.6674 3.60119 31.6709 3.67326 31.6762L10.0137 32.2316L9.98205 32.585L9.61467 36.7879L9.58479 37.1342L3.24436 36.5805C2.91675 36.5525 2.59842 36.4574 2.3092 36.301C1.88699 36.0756 1.5402 35.7313 1.31179 35.3107C1.08338 34.8902 0.983402 34.4118 1.02424 33.935ZM38.9754 37.2379C38.9204 37.8507 38.6385 38.4208 38.1849 38.8364C37.7312 39.252 37.1387 39.4831 36.5234 39.4844C36.4531 39.4844 36.3811 39.4826 36.309 39.4756L30.0055 38.9236L30.0354 38.5738L30.4027 34.3709L30.4063 34.3393L30.4344 34.0211L36.7379 34.5713C37.3879 34.629 37.9885 34.9421 38.408 35.442C38.8274 35.9419 39.0314 36.5877 38.9754 37.2379Z" fill="black"/>
<path d="M34.4756 25.8156L33.4789 21.7164C33.4679 21.6714 33.4481 21.6289 33.4206 21.5915C33.3932 21.5541 33.3586 21.5225 33.3189 21.4984C33.2797 21.4742 33.2359 21.4582 33.1903 21.4512C33.1447 21.4443 33.0982 21.4466 33.0535 21.458L32.0287 21.7076C31.9614 21.7236 31.9002 21.759 31.8529 21.8096L31.4223 22.2754C31.4131 22.2858 31.4048 22.2969 31.3977 22.3088L28.6906 22.6162L28.6493 22.6234L27.7353 22.8361L27.0849 20.2609C27.237 19.7938 27.3141 19.3055 27.3134 18.8143V18.2482C27.323 18.2369 27.3312 18.2245 27.338 18.2113C27.3665 18.1587 27.3815 18.0998 27.3815 18.0399C27.3815 17.9801 27.3665 17.9212 27.338 17.8686L26.6366 16.6029C26.5689 16.4441 26.516 16.2793 26.4784 16.1107L28.0271 15.7908C28.0878 15.778 28.1441 15.7496 28.1903 15.7082C28.2366 15.6669 28.2712 15.6142 28.2907 15.5553L28.6212 14.527C28.6428 14.4584 28.6434 14.3849 28.6229 14.316C28.2556 13.1189 27.57 11.2627 27.0919 10.1781C27.0889 10.1694 27.0847 10.1612 27.0796 10.1535C27.0475 9.96058 26.975 9.7766 26.8668 9.61363C26.7587 9.45065 26.6174 9.31236 26.4521 9.20781C26.1121 8.35284 25.9848 7.42811 26.0812 6.51309C26.0812 6.50816 26.0812 6.50324 26.0822 6.49832C26.0848 6.43196 26.11 6.36848 26.1537 6.31841C26.1973 6.26835 26.2568 6.2347 26.3222 6.22305C27.165 6.07398 28.0699 5.6217 28.1886 4.55154L28.1939 4.50584C28.2178 4.24103 28.2 3.97411 28.1411 3.71482C28.2115 3.70387 28.2808 3.68742 28.3486 3.66561C28.4382 3.82557 28.6122 4.30193 28.6122 5.55877C28.6122 7.36229 29.3505 8.54002 30.0361 8.87225C30.1595 8.93432 30.2952 8.96795 30.4333 8.97068C30.5798 8.97239 30.7224 8.92401 30.8376 8.83357C31.0169 8.69119 31.2032 8.39061 31.0644 7.76834C30.9515 7.20065 30.9396 6.61751 31.0292 6.04568C31.1617 5.03816 31.1147 4.01513 30.8904 3.024C30.7251 2.25584 30.3771 1.76189 29.8585 1.55799C29.1765 1.28904 28.4259 1.63006 28.0902 1.8199C28.0337 1.79971 27.9754 1.78499 27.9161 1.77596C27.654 1.74293 27.3883 1.7973 27.1603 1.93064C26.5004 1.21855 25.6883 0.8125 24.9219 0.8125C23.7811 0.8125 22.4891 0.8125 21.9389 1.62637C21.5838 2.15371 21.6066 2.92012 22.0145 3.9625C21.8123 4.34043 21.4625 5.35645 22.0566 7.28477C22.096 7.44686 22.1763 7.59614 22.2899 7.71833C22.4035 7.84051 22.5465 7.93151 22.7053 7.98262C22.8084 8.01375 22.9157 8.02916 23.0234 8.02832C23.2917 8.01893 23.5554 7.95556 23.7986 7.84199C23.8064 8.43417 23.8504 9.02532 23.9305 9.61211C23.4274 9.94468 23.0066 10.3873 22.6999 10.9066C22.3933 11.4258 22.2087 12.0081 22.1604 12.6092L22.0514 14.7045C20.8121 14.9611 20.835 15.3373 20.842 15.4691C20.8684 15.9139 21.2217 16.4025 21.6471 16.951L21.7561 17.0916C21.8017 17.1508 21.857 17.2019 21.9195 17.2428L21.8686 18.1955L20.2672 24.5465L20.2566 24.6233C20.2092 26.4338 19.8383 28.4082 19.1158 30.6479L18.8135 30.5635C18.5688 30.4947 18.3129 30.4749 18.0606 30.5052C17.8082 30.5355 17.5643 30.6153 17.3428 30.7401C17.1214 30.8648 16.9268 31.0321 16.7701 31.2322C16.6134 31.4324 16.4978 31.6615 16.4299 31.9064C16.4173 31.951 16.4137 31.9976 16.4192 32.0436C16.4247 32.0895 16.4392 32.1339 16.4619 32.1743C16.4846 32.2146 16.515 32.2501 16.5515 32.2786C16.5879 32.3072 16.6296 32.3282 16.6742 32.3406L19.158 33.0332L20.7383 33.4744C20.7694 33.4821 20.8012 33.4862 20.8332 33.4867C20.9097 33.4865 20.9841 33.4613 21.045 33.415C21.1059 33.3687 21.15 33.3038 21.1707 33.2301L21.176 33.2107L21.4537 32.2123C21.4728 32.1461 21.4715 32.0757 21.4502 32.0102L21.2533 31.4072C21.2497 31.3951 21.245 31.3833 21.2393 31.3721L22.8898 27.7158C22.9093 27.674 22.9195 27.6284 22.9197 27.5822L22.9865 25.341L24.3383 23.8627L25.6338 25.7084C25.7308 25.8474 25.8599 25.9609 26.0102 26.0392C26.1604 26.1175 26.3274 26.1584 26.4969 26.1584C26.6443 26.1586 26.7901 26.1269 26.924 26.0652C28.49 25.3721 30.1268 24.8516 31.8055 24.5131L31.8793 24.8189C31.9817 25.2398 32.2223 25.614 32.5627 25.8817C32.9031 26.1495 33.3236 26.2952 33.7566 26.2955C33.9106 26.2953 34.064 26.277 34.2137 26.241C34.3052 26.2188 34.3841 26.1613 34.4334 26.0811C34.4821 26.0017 34.4972 25.9062 34.4756 25.8156ZM27.3143 12.6549C27.5445 13.2842 27.7607 13.91 27.9189 14.4162L27.6834 15.1439L26.0223 15.4885C26.0008 15.4911 25.9796 15.4958 25.959 15.5025L24.2627 15.8523L24.2082 15.7029L24.0289 15.209L26.6164 14.3283C26.663 14.316 26.7065 14.2942 26.7443 14.2644C26.7821 14.2345 26.8134 14.1972 26.8362 14.1548C26.859 14.1123 26.8728 14.0657 26.8768 14.0177C26.8808 13.9697 26.8749 13.9213 26.8594 13.8757C26.844 13.8301 26.8193 13.7881 26.787 13.7524C26.7546 13.7167 26.7153 13.6881 26.6714 13.6682C26.6275 13.6483 26.58 13.6377 26.5319 13.6369C26.4837 13.6362 26.4359 13.6454 26.3914 13.6639L26.068 13.7729L25.8201 13.3352L27.3143 12.6549ZM22.9127 7.31113C22.8758 7.29883 22.7897 7.27246 22.7299 7.07734C22.1305 5.12617 22.6209 4.30703 22.6684 4.23672C23.6035 4.1752 24.507 4.21035 24.8305 4.31582C24.5141 5.14902 25.0537 6.06309 25.0783 6.10352C25.1069 6.15197 25.1467 6.19278 25.1945 6.22248C25.2422 6.25217 25.2965 6.26986 25.3525 6.27402C25.3807 6.27578 25.4106 6.2793 25.4422 6.2793C25.4077 6.3273 25.387 6.38384 25.3824 6.44277C25.2956 7.30018 25.3786 8.16631 25.6268 8.9916C25.5736 8.99129 25.5206 8.99659 25.4686 9.00742C25.1686 9.05716 24.8754 9.14151 24.5949 9.25879C24.5264 8.68957 24.4953 8.11646 24.5018 7.54316C24.5036 7.51174 24.5 7.48023 24.4912 7.45C24.6002 7.37441 24.6793 7.31289 24.7215 7.27949C24.7609 7.25198 24.7942 7.21667 24.8195 7.17576C24.8447 7.13485 24.8613 7.0892 24.8682 7.04164C24.875 6.99407 24.8721 6.9456 24.8595 6.89921C24.8469 6.85283 24.825 6.80951 24.795 6.77195C24.765 6.73438 24.7277 6.70336 24.6852 6.6808C24.6428 6.65825 24.5962 6.64463 24.5483 6.6408C24.5003 6.63697 24.4522 6.643 24.4067 6.65852C24.3612 6.67405 24.3194 6.69873 24.2838 6.73105C23.9164 7.02285 23.2272 7.40781 22.9127 7.31113ZM21.582 15.5799C21.8666 15.4789 22.1587 15.4007 22.4557 15.3461C22.4768 15.3426 22.4961 15.3391 22.5154 15.3355C22.6069 15.3212 22.689 15.2713 22.7439 15.1967L22.9373 14.9313L23.2783 15.2055L23.5965 16.0791L22.3924 16.6539C22.3811 16.6605 22.3685 16.6648 22.3555 16.6663C22.3425 16.6678 22.3293 16.6666 22.3168 16.6627C22.3155 16.6625 22.3142 16.6619 22.3133 16.6609L22.2025 16.5186C21.9598 16.2309 21.7515 15.9159 21.582 15.5799ZM17.2508 31.7711C17.3615 31.595 17.515 31.4498 17.6969 31.349C17.8789 31.2482 18.0834 31.195 18.2914 31.1945C18.4037 31.195 18.5154 31.2104 18.6236 31.2402L19.2318 31.4107L20.6434 31.8045V31.8063L20.7488 32.1262L20.5889 32.7027L17.2508 31.7711ZM22.3801 24.9631C22.3232 25.0251 22.2907 25.1057 22.2887 25.1898L22.2201 27.4908L20.6064 31.0645L19.7943 30.8377C20.5238 28.5613 20.9053 26.5434 20.958 24.6801L21.8105 21.3016C22.4928 22.041 23.3773 22.5636 24.3541 22.8045L22.3801 24.9631ZM26.6357 25.4254C26.5616 25.4584 26.4783 25.4643 26.4002 25.4421C26.3221 25.42 26.2543 25.3711 26.2086 25.3041L24.9272 23.4777L25.7568 22.3141C25.8272 22.2525 25.8939 22.1875 25.959 22.1207C25.9941 22.0855 26.0293 22.0486 26.0627 22.0117C26.0926 21.9801 26.1225 21.9449 26.1541 21.9115C26.1611 21.9038 26.1676 21.8955 26.1734 21.8869C26.2033 21.8535 26.2314 21.8201 26.2578 21.7867C26.3558 21.6681 26.4473 21.5443 26.532 21.4158C26.5619 21.3719 26.59 21.3262 26.6182 21.2805L27.1385 23.3424C27.1616 23.4317 27.2185 23.5084 27.2973 23.5563C27.3761 23.6043 27.4705 23.6196 27.5604 23.599L28.7891 23.3125L31.4398 23.0102L31.6385 23.8293C29.9179 24.1782 28.2404 24.7133 26.6357 25.4254ZM32.5631 24.652L32.4084 24.0174L32.0674 22.6147V22.6129L32.2977 22.365L32.8777 22.2244L33.6969 25.5906C33.432 25.5773 33.1785 25.4787 32.9741 25.3095C32.7698 25.1404 32.6257 24.9097 32.5631 24.652Z" fill="black"/>
</svg>
