<svg width="35" height="37" viewBox="0 0 35 37" fill="none" xmlns="http://www.w3.org/2000/svg">
<path d="M27.9217 7.92778L27.8741 7.75387C27.1709 5.19611 25.461 3.01607 23.1196 1.69195C20.7782 0.367833 17.9964 0.00774433 15.3844 0.690673L8.34903 2.53898C5.73871 3.22805 3.51388 4.90347 2.16255 7.19773C0.81122 9.492 0.443732 12.2178 1.14069 14.7772L3.73157 24.2459C4.34781 26.5136 5.66573 28.5386 7.50416 30.0425L8.57396 30.9209L8.85947 31.9644C9.26049 33.4262 10.2375 34.6723 11.5758 35.4285C12.914 36.1848 14.504 36.3894 15.9961 35.9974L28.6564 32.6713C30.1492 32.2791 31.4219 31.3219 32.1944 30.0103C32.967 28.6987 33.1761 27.1401 32.7759 25.6774L32.5341 24.7939L33.0722 23.933C33.8933 22.6112 34.4328 21.1401 34.6582 19.6085C34.8837 18.0769 34.7904 16.5164 34.3839 15.0211L33.6013 12.1609C33.2653 10.9389 32.5254 9.86064 31.4972 9.09478C30.4691 8.32892 29.2108 7.91872 27.9193 7.9284L27.9217 7.92778ZM27.9041 29.9125L15.2414 33.2392C14.8719 33.3363 14.4865 33.3611 14.1073 33.3122C13.728 33.2634 13.3622 33.1418 13.0309 32.9544C12.3618 32.576 11.8734 31.9526 11.6734 31.2214L29.9646 26.416C30.0637 26.7781 30.089 27.1559 30.039 27.5276C29.9891 27.8993 29.8649 28.2578 29.6736 28.5825C29.4823 28.9072 29.2275 29.1918 28.9239 29.42C28.6203 29.6482 28.2737 29.8156 27.9041 29.9125ZM31.5726 15.7597C31.877 16.8813 31.9466 18.0516 31.7772 19.2003C31.6079 20.3489 31.2031 21.4521 30.5872 22.4434L29.9506 23.4632L10.3117 28.6227L9.37452 27.8536C7.99504 26.7243 7.00625 25.2042 6.54396 23.502L5.26074 18.8123C6.24844 19.0736 7.28912 19.0742 8.27712 18.814L18.1261 16.2265C18.4993 16.1285 18.8173 15.8892 19.0104 15.5614C19.2035 15.2335 19.2558 14.844 19.1558 14.4784C19.0557 14.1128 18.8116 13.8011 18.477 13.6119C18.1424 13.4227 17.7449 13.3714 17.3718 13.4695L7.52392 16.0567C7.15426 16.1539 6.76867 16.1789 6.38917 16.1301C6.00968 16.0812 5.64372 15.9596 5.31222 15.7722C4.98071 15.5847 4.69016 15.335 4.45717 15.0375C4.22419 14.7399 4.05333 14.4003 3.95436 14.038C3.45646 12.2098 3.71894 10.2627 4.68423 8.6238C5.64952 6.98495 7.23879 5.78817 9.10342 5.296L16.1388 3.44769C18.0046 2.95981 19.9917 3.21701 21.6642 4.16286C23.3368 5.10871 24.5581 6.66599 25.0604 8.49307L25.108 8.66698C23.9848 9.29167 23.1047 10.2637 22.6055 11.4308C22.1062 12.5979 22.016 13.8943 22.349 15.1171L23.4806 19.2526C23.5806 19.6182 23.8248 19.9299 24.1594 20.1191C24.4939 20.3083 24.8915 20.3595 25.2646 20.2615C25.6377 20.1635 25.9558 19.9242 26.1489 19.5964C26.342 19.2685 26.3943 18.879 26.2943 18.5134L25.1627 14.3779C24.9626 13.6465 25.0671 12.8672 25.4534 12.2114C25.8397 11.5556 26.476 11.077 27.2224 10.8809C27.9688 10.6848 28.7641 10.7873 29.4334 11.1658C30.1026 11.5443 30.5911 12.1678 30.7912 12.8991L31.5726 15.7597Z" fill="#E8363A"/>
</svg>
