<svg width="31" height="43" viewBox="0 0 31 43" fill="none" xmlns="http://www.w3.org/2000/svg">
<path d="M29.791 17.6954L29.6785 17.6532C28.7451 17.2981 26.0817 17.8835 25.6405 17.9837C25.2309 17.9977 21.1384 18.1401 17.4343 18.0997C17.654 17.6743 17.8579 17.3053 17.9898 17.0715C18.1679 17.1234 18.3526 17.1494 18.5382 17.1489C18.9306 17.142 19.3159 17.0433 19.6632 16.8606C21.2858 16.0575 21.4827 12.0873 21.5073 11.218C21.5664 11.1369 21.6187 11.051 21.6638 10.9614C21.7008 10.8887 21.7113 10.8054 21.6937 10.7258C21.669 10.6221 21.0995 8.18105 18.8406 7.341C17.5871 6.87342 15.9152 7.07732 14.683 7.82949C14.4981 7.53174 14.2419 7.28472 13.9377 7.11072C13.9392 7.05894 13.9357 7.00713 13.9271 6.95603C13.8691 6.60271 13.5861 6.29879 13.0834 6.04918C12.549 5.78551 11.9232 6.0316 11.4502 6.69412C10.8051 7.5957 10.5959 8.9842 11.364 9.74691C11.6295 10.0106 11.8844 10.1424 12.1234 10.1424C12.2104 10.1428 12.2965 10.1255 12.3765 10.0914C12.556 10.0078 12.6995 9.86244 12.7808 9.68187C12.8887 9.76995 13.0075 9.8438 13.1342 9.9016C13.113 10.0271 13.1024 10.1541 13.1025 10.2813C13.1025 11.6733 13.3258 13.5332 14.3912 14.487C14.6042 14.6807 14.8524 14.8317 15.1224 14.9318C15.1424 15.3521 15.0883 15.7728 14.9625 16.1744C14.9022 16.3647 14.8061 16.5419 14.6795 16.6962C13.3715 13.7783 9.57249 8.73652 9.04866 8.04939C9.03284 7.95799 9.00296 7.80506 8.96077 7.61873C9.23919 7.75218 9.54043 7.83152 9.84846 7.85252C9.87483 7.85252 9.89944 7.85252 9.92405 7.85076C10.0307 7.84069 10.1332 7.80487 10.223 7.74638C10.3127 7.6879 10.3868 7.6085 10.4391 7.51502C10.7713 6.95973 10.5533 5.83842 10.3002 5.25658C10.0752 4.73293 10.2949 3.73643 10.3987 3.39541C10.4091 3.36122 10.4144 3.32568 10.4145 3.28994C10.3934 0.520156 10.0823 0.462148 9.83264 0.414687C9.59534 0.370742 9.40549 0.513124 9.27366 0.841835C9.1137 1.24437 8.93616 1.80494 8.74983 2.39891C8.45628 3.33389 8.09241 4.49562 7.83049 4.80324C7.79182 4.84894 7.67229 4.97726 7.32952 5.31635C6.3803 5.04037 5.04243 5.22318 4.9809 5.23197C4.91173 5.24237 4.84716 5.27293 4.79526 5.31983C4.74336 5.36672 4.70644 5.42788 4.68911 5.49564L4.42579 6.54102C4.41034 6.6053 4.41319 6.67261 4.434 6.73536C4.45481 6.79811 4.49276 6.85378 4.54356 6.89609L5.17989 7.4215C3.15524 9.38867 0.588658 11.8992 0.254498 12.2261C0.0259823 12.3738 -0.26933 12.9836 0.750201 17.8729C1.18262 19.9538 1.91756 21.5116 2.87715 22.3931C2.79263 22.9249 2.7755 23.4652 2.82618 24.0012C2.38497 26.7785 3.99002 30.3615 4.37499 31.1664C4.1746 31.6252 3.76151 32.9326 4.43299 34.9344C5.11327 36.9591 4.77049 39.4353 4.69667 39.9029C4.48221 40.1982 3.88807 41.0576 3.88807 41.6111C3.87932 41.7546 3.90639 41.898 3.96684 42.0283C4.02729 42.1587 4.11922 42.272 4.23436 42.358C4.74588 42.7272 5.61266 42.4863 6.45641 42.2069C6.9943 42.0293 7.94721 42.3721 8.26696 42.518C8.3066 42.5369 8.34964 42.5477 8.39352 42.5496C8.9279 42.5795 9.36225 42.5936 9.71909 42.5936C11.2398 42.5936 11.3048 42.351 11.3575 42.1471C11.4015 41.9854 11.3698 41.7516 10.9761 41.5584C10.5876 41.365 10.0374 41.142 9.45542 40.908C8.56069 40.5459 7.44958 40.0978 7.13668 39.8113C6.90114 39.3015 7.12438 35.7479 7.48122 32.5547C7.57087 32.2981 7.99098 30.9853 8.5359 27.3017C8.67351 26.4268 8.69773 25.5378 8.60797 24.6567C9.29352 24.6426 9.8896 24.5811 10.4222 24.5284C11.1513 24.426 11.8895 24.4053 12.6232 24.4668C14.5833 24.6954 15.4708 23.669 15.9229 22.5406C15.9313 22.5397 15.9395 22.5379 15.9475 22.5354C18.8128 21.6496 24.4807 20.2277 25.0258 20.0908H25.4037L26.3687 20.7339C26.3985 20.7551 26.4318 20.7706 26.4672 20.7796L27.6976 21.1312C27.764 21.1503 27.8344 21.1494 27.9003 21.1288C27.9661 21.1081 28.0244 21.0685 28.0678 21.0149C28.1113 20.9613 28.1381 20.8961 28.1448 20.8274C28.1515 20.7587 28.1378 20.6896 28.1055 20.6287L27.9209 20.2806L29.2289 20.1382C29.8722 20.0679 30.6828 19.6163 30.9412 18.7884C31.1298 18.1876 30.2913 17.88 29.791 17.6954ZM15.6289 16.3965C15.766 15.9719 15.8343 15.5281 15.831 15.0819C15.896 15.0871 15.9611 15.0889 16.0279 15.0889C16.1483 15.0887 16.2686 15.0816 16.3882 15.0678C16.4489 15.0609 16.5067 15.0384 16.556 15.0024C16.6053 14.9664 16.6443 14.9182 16.6694 14.8625C16.6944 14.8069 16.7044 14.7456 16.6986 14.6849C16.6928 14.6241 16.6712 14.5659 16.6361 14.516C16.1281 13.7937 15.7783 12.9537 15.9013 12.7515C15.9154 12.7269 16.0156 12.676 16.3003 12.7164C17.0105 12.8183 17.5484 12.6865 17.8999 12.3262C18.0926 12.1216 18.2194 11.8638 18.2638 11.5863C18.8773 11.8148 19.9462 12.1082 20.7775 11.7814C20.665 13.5041 20.2343 15.7938 19.35 16.2313C18.7769 16.5161 18.3373 16.4756 18.0262 16.3368C18.0223 16.3341 18.0182 16.3317 18.0139 16.3297C17.9928 16.3161 17.9696 16.3061 17.9453 16.2999C17.7412 16.192 17.5672 16.0349 17.439 15.8428C17.416 15.8017 17.3849 15.7655 17.3476 15.7366C17.3104 15.7077 17.2676 15.6866 17.222 15.6746C17.1764 15.6625 17.1288 15.6598 17.0821 15.6665C17.0354 15.6732 16.9906 15.6893 16.9502 15.7137C16.9098 15.7382 16.8748 15.7705 16.8472 15.8087C16.8196 15.847 16.7999 15.8904 16.7895 15.9364C16.779 15.9824 16.7779 16.03 16.7862 16.0765C16.7945 16.1229 16.8121 16.1672 16.8379 16.2067C16.9727 16.4235 17.1489 16.6116 17.3564 16.7602C17.1666 17.0977 16.8502 17.6743 16.5443 18.3032C16.1928 19.0239 15.857 19.8129 15.741 20.3929C15.7234 20.4773 15.7076 20.567 15.6883 20.6636C15.6514 20.7339 15.6162 20.7937 15.5846 20.8464C15.5635 20.6584 15.5494 20.4334 15.5371 20.2454C15.4826 19.4616 15.4246 18.5741 15.1099 18.0063C15.078 17.7994 15.0268 17.5958 14.957 17.3983C15.2763 17.1395 15.5101 16.7903 15.628 16.3965H15.6289ZM6.6554 9.33506L7.13528 9.5126C8.27628 12.1734 9.56827 15.2947 10.6333 18.4741C10.078 18.8158 9.5621 19.2178 9.09506 19.6728C8.49109 19.4328 7.85476 19.2841 7.207 19.2315C6.79883 16.7539 4.61616 14.1348 3.74024 13.1699C4.3168 12.8359 5.22928 12.1084 5.95174 10.5952C6.16012 10.1611 6.39512 9.74023 6.6554 9.33506ZM8.36592 5.25693C8.69463 4.86846 8.99698 3.95615 9.42061 2.60844C9.49971 2.35355 9.57881 2.10588 9.6544 1.8756C9.68428 2.28869 9.70538 2.78598 9.71065 3.24125C9.62452 3.53832 9.31339 4.74559 9.6544 5.53484C9.93917 6.19209 9.94971 6.97941 9.83897 7.14992C9.66143 7.14816 9.24483 7.00754 8.66985 6.68586C8.52853 6.29111 8.29536 5.93562 7.98958 5.64875C8.24815 5.39123 8.32813 5.30158 8.36592 5.25781V5.25693ZM5.16284 6.49496L5.31225 5.901C5.82202 5.85353 6.74329 5.82365 7.28645 6.04338C7.28821 6.04338 7.28997 6.04514 7.29348 6.04689C7.35468 6.0694 7.41307 6.0989 7.46751 6.13478C7.61692 6.23322 7.8384 6.47053 8.05813 7.05219C8.05819 7.05545 8.05944 7.05857 8.06165 7.06098C8.20023 7.44413 8.30206 7.83961 8.36575 8.24205C8.37484 8.30134 8.39839 8.35748 8.4343 8.40553C8.48176 8.46529 13.0823 14.4971 14.1969 17.367C14.1987 17.3705 14.1987 17.3741 14.2005 17.3758C14.3057 17.624 14.3795 17.8844 14.4202 18.1508L14.4255 18.2036C14.4508 18.3415 14.4432 18.4835 14.4031 18.6179C14.3631 18.7524 14.2919 18.8754 14.1952 18.977C13.9667 19.1915 13.5518 19.3004 13.0032 19.3004C12.6532 19.2966 12.3043 19.2613 11.9606 19.195C11.8569 19.1762 11.7594 19.1318 11.6771 19.0658C11.5948 18.9998 11.5304 18.9143 11.4896 18.8171L11.4597 18.7221C11.4386 18.6588 11.4175 18.5973 11.3982 18.5393C11.3982 18.5358 11.3964 18.534 11.3964 18.5323C10.287 15.1826 8.91594 11.882 7.72045 9.09635C7.70196 9.05259 7.67461 9.01313 7.64013 8.98046C7.60564 8.94778 7.56476 8.9226 7.52006 8.9065L6.66577 8.58834C6.64819 8.58131 6.63061 8.57428 6.61479 8.569L6.38452 8.48814L6.63413 8.13131C6.6851 8.05888 6.70672 7.96982 6.69466 7.88208C6.68259 7.79434 6.63772 7.71444 6.56909 7.65846L5.90463 7.11019L5.16284 6.49496ZM1.43751 17.7288C0.623638 13.8264 0.711529 12.9045 0.750201 12.7252C1.10001 12.3806 3.70016 9.84113 5.72481 7.87361L5.87247 7.9949L5.542 8.46775C5.51107 8.51223 5.49084 8.56326 5.48289 8.61684C5.47494 8.67043 5.47947 8.72513 5.49615 8.77667C5.51283 8.82822 5.54119 8.87521 5.57903 8.91398C5.61686 8.95276 5.66314 8.98226 5.71426 9.00019L5.97442 9.0916C5.73349 9.47941 5.51402 9.88015 5.317 10.292C4.43686 12.1347 3.2695 12.6443 3.03711 12.7304C3.03184 12.7322 3.02481 12.734 3.01954 12.7357C3.01118 12.7382 3.00296 12.7411 2.99493 12.7445C2.91766 12.7649 2.84969 12.8111 2.80231 12.8755C2.75494 12.9399 2.73101 13.0185 2.7345 13.0984C2.73799 13.1782 2.76869 13.2544 2.8215 13.3144C2.87431 13.3744 2.94605 13.4145 3.02481 13.4281C3.65059 14.0942 6.0363 16.7639 6.49508 19.2384C5.33651 19.3263 3.72811 19.7902 3.08106 21.597C2.51364 20.9503 1.86835 19.7921 1.43751 17.7288ZM7.84174 27.1999C7.25288 31.1666 6.81325 32.3353 6.80973 32.3459C6.79761 32.3744 6.7899 32.4047 6.78688 32.4355C6.78512 32.4531 6.58649 34.2246 6.45641 36.039C6.18044 39.8545 6.45817 40.1305 6.62516 40.2958C6.98551 40.6526 7.87514 41.0286 9.19157 41.5614C9.46579 41.6721 9.73297 41.7794 9.97731 41.8813C9.53962 41.8901 8.99469 41.8795 8.49706 41.8532C8.19471 41.7213 7.05196 41.2698 6.23458 41.5403C5.90762 41.6493 4.90901 41.9797 4.64534 41.7899C4.63303 41.7794 4.59085 41.7495 4.59085 41.6124C4.59085 41.3645 4.96526 40.7159 5.30979 40.2573C5.3437 40.2144 5.36608 40.1636 5.37483 40.1096C5.39768 39.9883 5.9092 37.1201 5.10061 34.7131C4.41682 32.6814 4.97405 31.5232 5.05842 31.3668C5.09347 31.315 5.11407 31.2548 5.11809 31.1923C5.1221 31.1299 5.1094 31.0676 5.08127 31.0117C5.06018 30.973 3.14768 27.1364 3.4938 24.2911C3.52989 24.2283 3.54527 24.1557 3.53774 24.0836C3.53598 24.0661 3.53422 24.0467 3.53247 24.0327C3.603 23.575 3.76502 23.1363 4.00883 22.7426C4.56782 21.8727 5.29204 21.4525 5.99885 21.5914C6.8637 21.7619 7.56524 22.7549 7.82891 24.1837C7.83946 24.2417 7.85001 24.3014 7.85879 24.3594C7.99784 25.3016 7.99197 26.2594 7.84174 27.1999ZM29.1536 19.4388L27.3289 19.6392C27.2719 19.6455 27.2174 19.6656 27.1701 19.6977C27.1227 19.7299 27.0839 19.7732 27.057 19.8237C27.0302 19.8743 27.0161 19.9307 27.016 19.9879C27.0159 20.0452 27.0297 20.1016 27.0564 20.1523L27.0968 20.2296L26.7136 20.1189L25.7045 19.4476C25.6468 19.4087 25.5789 19.3879 25.5093 19.3878H24.982C24.9535 19.3879 24.9252 19.3914 24.8976 19.3984C24.8396 19.4142 19.3125 20.7921 16.1833 21.7289C16.2606 21.4248 16.3151 21.1331 16.3626 20.8783C16.3661 20.8624 16.3678 20.8484 16.3714 20.8343C16.3907 20.7271 16.41 20.6269 16.4294 20.532C16.5844 19.9323 16.8043 19.3513 17.085 18.7991C21.0721 18.8536 25.6517 18.6866 25.6983 18.6849C25.7202 18.6837 25.7419 18.6807 25.7633 18.6761C26.8762 18.4194 28.8539 18.0927 29.4252 18.3104L29.5483 18.3562C29.7884 18.4349 30.0194 18.5392 30.2373 18.6673C30.137 18.8773 29.9849 19.0583 29.7954 19.1932C29.6058 19.3282 29.385 19.4127 29.1538 19.4388H29.1536Z" fill="black"/>
</svg>
